<?xml version="1.0" standalone="no"?><!DOCTYPE svg PUBLIC "-//W3C//DTD SVG 1.1//EN" "http://www.w3.org/Graphics/SVG/1.1/DTD/svg11.dtd"><svg t="1686733420838" class="icon" viewBox="0 0 1024 1024" version="1.1" xmlns="http://www.w3.org/2000/svg" p-id="1119" xmlns:xlink="http://www.w3.org/1999/xlink" width="200" height="200"><path d="M678.956522 534.26087q0 4.652522-0.222609 9.282782t-0.667826 9.260522q-0.467478 4.630261-1.157565 9.216-0.667826 4.608-1.580522 9.149217-0.912696 4.563478-2.048 9.060174-1.113043 4.518957-2.470957 8.94887-1.335652 4.452174-2.893913 8.837565-1.580522 4.36313-3.361391 8.659478t-3.784348 8.481392q-1.958957 4.207304-4.162782 8.303304-2.181565 4.096-4.563479 8.080696-2.404174 3.984696-4.964173 7.835826-2.582261 3.873391-5.342609 7.590956-2.782609 3.739826-5.721044 7.346087-2.960696 3.561739-6.077217 7.012174t-6.41113 6.722783q-3.272348 3.294609-6.722783 6.41113-3.428174 3.116522-7.034435 6.077217-3.584 2.938435-7.323826 5.698783-3.717565 2.782609-7.568696 5.342609-3.873391 2.582261-7.858087 4.986435-4.006957 2.381913-8.080695 4.563478-4.096 2.203826-8.303305 4.185043-4.185043 2.003478-8.481391 3.762087-4.296348 1.78087-8.681739 3.339131-4.36313 1.558261-8.815304 2.916174-4.452174 1.335652-8.94887 2.470956-4.496696 1.135304-9.060174 2.048-4.541217 0.890435-9.126956 1.580522-4.608 0.667826-9.238261 1.135304-4.630261 0.445217-9.260522 0.667826-4.630261 0.24487-9.282783 0.24487t-9.282782-0.222609q-4.630261-0.222609-9.260522-0.667826-4.630261-0.467478-9.216-1.157565-4.608-0.667826-9.149217-1.580522-4.563478-0.912696-9.060174-2.048-4.518957-1.113043-8.94887-2.470956-4.452174-1.335652-8.837565-2.893913-4.36313-1.580522-8.659478-3.361392t-8.481392-3.784348q-4.207304-1.958957-8.303304-4.162782-4.096-2.181565-8.080696-4.563478-3.984696-2.404174-7.835826-4.964174-3.873391-2.582261-7.590956-5.342609-3.739826-2.782609-7.346087-5.721044-3.561739-2.960696-7.012174-6.077217t-6.722783-6.41113q-3.294609-3.272348-6.41113-6.722783-3.116522-3.428174-6.077217-7.034435-2.938435-3.584-5.698783-7.323826-2.782609-3.717565-5.342609-7.568695-2.582261-3.873391-4.986435-7.858087-2.381913-4.006957-4.563478-8.080696-2.203826-4.096-4.185043-8.303304-2.003478-4.185043-3.762087-8.481392-1.78087-4.296348-3.339131-8.681739-1.558261-4.36313-2.916174-8.815304-1.335652-4.452174-2.470956-8.94887-1.135304-4.496696-2.048-9.060174-0.890435-4.541217-1.580522-9.126956-0.667826-4.608-1.135304-9.238261-0.445217-4.630261-0.667826-9.260522Q300.521739 538.935652 300.521739 534.26087t0.222609-9.282783q0.222609-4.630261 0.667826-9.260522 0.467478-4.630261 1.157565-9.216 0.667826-4.608 1.580522-9.149217 0.912696-4.563478 2.048-9.060174 1.113043-4.518957 2.470956-8.94887 1.335652-4.452174 2.893913-8.837565 1.580522-4.36313 3.361392-8.659478t3.784348-8.481391q1.958957-4.207304 4.162782-8.303305 2.181565-4.096 4.563478-8.080695 2.404174-3.984696 4.986435-7.835827 2.56-3.873391 5.342609-7.590956 2.760348-3.739826 5.698783-7.346087 2.960696-3.561739 6.077217-7.012174t6.41113-6.722783q3.272348-3.294609 6.722783-6.41113 3.428174-3.116522 7.034435-6.077217 3.584-2.938435 7.323826-5.698783 3.717565-2.782609 7.568695-5.342609 3.873391-2.582261 7.858087-4.986434 4.006957-2.381913 8.080696-4.563479 4.096-2.203826 8.303304-4.185043 4.185043-2.003478 8.481392-3.762087 4.296348-1.78087 8.681739-3.339131 4.36313-1.558261 8.815304-2.916173 4.452174-1.335652 8.94887-2.470957 4.496696-1.135304 9.060174-2.048 4.541217-0.890435 9.126956-1.580522 4.608-0.667826 9.238261-1.135304 4.630261-0.445217 9.260522-0.667826 4.630261-0.24487 9.282782-0.24487t9.282783 0.222609q4.630261 0.222609 9.260522 0.667826 4.630261 0.467478 9.216 1.157565 4.608 0.667826 9.149217 1.580522 4.563478 0.912696 9.060174 2.048 4.518957 1.113043 8.94887 2.470957 4.452174 1.335652 8.837565 2.893913 4.36313 1.580522 8.659478 3.361391t8.481391 3.784348q4.207304 1.958957 8.303305 4.162782 4.096 2.181565 8.080695 4.563479 3.984696 2.404174 7.835827 4.986434 3.873391 2.56 7.590956 5.342609 3.739826 2.760348 7.346087 5.698783 3.561739 2.960696 7.012174 6.077217t6.722783 6.41113q3.294609 3.272348 6.41113 6.722783 3.116522 3.428174 6.077217 7.034435 2.938435 3.584 5.698783 7.323826 2.782609 3.717565 5.342609 7.568696 2.582261 3.873391 4.986434 7.858087 2.381913 4.006957 4.563479 8.080695 2.203826 4.096 4.185043 8.303305 2.003478 4.185043 3.762087 8.481391 1.78087 4.296348 3.339131 8.681739 1.558261 4.36313 2.916173 8.815304 1.335652 4.452174 2.470957 8.94887 1.135304 4.496696 2.048 9.060174 0.890435 4.541217 1.580522 9.126956 0.667826 4.608 1.135304 9.238261 0.445217 4.630261 0.667826 9.260522 0.24487 4.630261 0.24487 9.282783z" fill="#FFDEBB" p-id="1120"></path><path d="M845.245217 17.808696c2.515478 2.493217 4.407652 5.520696 5.520696 8.859826l33.168696 99.283478c2.226087 6.811826 7.568696 12.154435 14.380521 14.425043l99.016348 32.946087a22.77287 22.77287 0 0 1 8.882087 37.665392l-157.161739 157.184c-6.099478 6.099478-15.137391 8.236522-23.30713 5.498435l-95.276522-31.833044-148.969739 148.992a34.170435 34.170435 0 0 1-48.306087-48.306087l148.880695-148.858435-31.744-95.387826a22.77287 22.77287 0 0 1 5.520696-23.284869L813.056 17.808696c8.904348-8.882087 23.30713-8.882087 32.211478 0zM610.148174 46.169043a490.629565 490.629565 0 0 0-109.478957-12.31026C230.310957 33.881043 11.130435 253.039304 11.130435 523.397565 11.130435 793.689043 230.310957 1012.869565 500.646957 1012.869565c270.358261 0 489.516522-219.158261 489.516521-489.494261 0-36.552348-4.006957-72.614957-11.887304-107.742608a34.148174 34.148174 0 0 0-66.649044 15.003826c6.789565 30.185739 10.24 61.217391 10.24 92.738782 0 232.626087-188.571826 421.175652-421.220173 421.175653-232.626087 0-421.220174-188.549565-421.220174-421.175653 0-232.626087 188.594087-421.175652 421.220174-421.175652 31.721739-0.022261 63.354435 3.517217 94.274782 10.573913a34.170435 34.170435 0 0 0 15.204174-66.582261z m113.886609 157.228522l69.164521-69.142261 9.839305 29.42887 1.847652 5.008696a91.069217 91.069217 0 0 0 55.785739 52.535652l29.050435 9.683478-69.053218 69.053217-72.548174-24.242087-24.08626-72.347826z m-189.217392 126.441739c0-18.854957-15.293217-34.148174-34.148174-34.148174-125.729391 0-227.684174 101.932522-227.684174 227.661913 0 125.751652 101.954783 227.684174 227.684174 227.684174 125.773913 0 227.706435-101.954783 227.706435-227.684174a34.148174 34.148174 0 0 0-68.340869 0 159.387826 159.387826 0 1 1-159.365566-159.365565c18.877217 0 34.170435-15.293217 34.170435-34.148174z" fill="#86BC9F" p-id="1121"></path><path d="M853.125565 9.906087q5.654261 5.654261 8.192 13.222956l33.168696 99.30574q1.825391 5.542957 7.346087 7.368347l99.016348 32.946087q17.92 6.010435 22.260869 24.375653 4.318609 18.387478-9.015652 31.744l-157.161739 157.161739q-14.825739 14.848-34.726957 8.192l-95.25426-31.833044 3.539478-10.551652 7.858087 7.880348-148.969739 148.969739q-18.476522 18.476522-43.742609 11.731478-25.266087-6.767304-32.055652-32.033391-6.767304-25.243826 11.731478-43.742609l148.902957-148.858435 7.858086 7.880348-10.551652 3.517218-31.744-95.410087q-6.589217-19.856696 8.192-34.637913L805.197913 9.928348Q815.126261 0 829.17287 0q14.024348 0 23.952695 9.928348z m-15.738435 15.760696Q833.981217 22.26087 829.150609 22.26087q-4.808348 0-8.236522 3.405913l-157.206261 157.20626q-5.075478 5.075478-2.804869 11.887305l33.903304 101.910261-153.755826 153.711304q-9.394087 9.394087-5.943652 22.26087 3.428174 12.822261 16.272695 16.250434 12.844522 3.450435 22.26087-5.943652l153.822609-153.844869 101.798956 34.014608q6.834087 2.270609 11.931826-2.804869l157.161739-157.184q4.563478-4.585739 3.072-10.907826-1.491478-6.299826-7.613217-8.347826l-99.038609-32.946087q-16.072348-5.36487-21.414956-21.437218l-33.146435-99.283478q-0.868174-2.582261-2.827131-4.541217z m-229.732173 31.387826q-52.557913-12.02087-107.008-12.02087-97.324522 0-186.189914 37.576348-85.860174 36.307478-152.08626 102.511304-66.203826 66.226087-102.511305 152.064Q22.26087 426.073043 22.26087 523.375304q0 97.324522 37.598608 186.189913 36.285217 85.860174 102.511305 152.064 66.226087 66.203826 152.08626 102.511305Q403.322435 1001.73913 500.646957 1001.73913q97.346783 0 186.212173-37.576347 85.860174-36.329739 152.064-102.533566 66.226087-66.226087 102.533566-152.041739 37.598609-88.887652 37.598608-186.212174 0-53.581913-11.642434-105.293913-2.092522-9.305043-10.150957-14.402782-8.058435-5.097739-17.363478-3.005218-9.305043 2.092522-14.402783 10.150957-5.097739 8.058435-3.005217 17.363478 10.50713 46.792348 10.50713 95.187478 0 87.930435-33.970087 168.292174-32.812522 77.57913-92.649739 137.416348-59.837217 59.814957-137.438609 92.649739-80.339478 33.970087-168.292173 33.970087-87.930435 0-168.292174-33.970087-77.57913-32.834783-137.416348-92.649739-59.837217-59.837217-92.649739-137.416348-33.992348-80.361739-33.992348-168.292174 0-87.930435 33.992348-168.292174 32.812522-77.57913 92.649739-137.394087 59.837217-59.837217 137.416348-92.649739 80.361739-33.970087 168.292174-33.970087 49.018435-0.044522 96.745739 10.863305 12.955826 2.960696 22.016-6.789565 9.037913-9.728 5.12-22.438957-3.917913-12.688696-16.873739-15.671652z m4.941913-21.726609q25.510957 5.832348 33.190956 30.809043 7.702261 24.998957-10.084174 44.143305-17.764174 19.166609-43.252869 13.356522-45.30087-10.329043-91.803826-10.306783-83.433739 0-159.610435 32.211478-73.594435 31.120696-130.359652 87.885913t-87.885913 130.337392q-32.233739 76.176696-32.23374 159.610434 0 83.433739 32.23374 159.610435 31.120696 73.594435 87.885913 130.337391 56.765217 56.765217 130.359652 87.885913 76.176696 32.233739 159.610435 32.23374 83.456 0 159.610434-32.23374 73.616696-31.120696 130.381913-87.885913 56.765217-56.765217 87.885913-130.337391 32.211478-76.176696 32.211479-159.610435 0-45.924174-9.97287-90.312347-4.096-18.298435 5.921391-34.148174 10.017391-15.849739 28.338087-19.968 18.298435-4.096 34.148174 5.921391 15.849739 10.039652 19.968 28.338087 12.176696 54.116174 12.176696 110.191304 0 101.821217-39.357217 194.849392-37.999304 89.84487-107.297392 159.120695-69.275826 69.275826-159.120695 107.297391Q602.490435 1024 500.646957 1024q-101.843478 0-194.871653-39.334957-89.84487-37.999304-159.142956-107.297391-69.275826-69.275826-107.297391-159.120695Q0 625.218783 0 523.375304q0-101.843478 39.357217-194.849391 37.999304-89.84487 107.297392-159.142956Q215.930435 100.10713 305.753043 62.107826q93.050435-39.357217 194.871653-39.357217 56.965565 0 111.972174 12.577391z m103.557565 160.211478l81.897739-81.853217 15.515826 46.502956-10.551652 3.517218 10.462609-3.851131 1.825391 5.008696-10.440348 3.85113 10.329043-4.140521q13.801739 34.415304 48.973914 46.124521l46.146782 15.36L823.652174 312.765217l-84.368696-28.204521-28.004174-84.146087 4.875131-4.85287z m15.716174 15.738435l-7.858087-7.858087 10.551652-3.517217 24.108522 72.325565-10.573913 3.517217 3.539478-10.551652 72.525913 24.242087-3.517217 10.551652-7.880348-7.858087 69.053217-69.053217 7.880348 7.858087-3.517217 10.551652-29.050435-9.661217q-44.966957-14.981565-62.597565-58.969044l-0.066783-0.133565-1.958957-5.342609-9.883826-29.584695 10.551652-3.517218 7.880348 7.858087-69.186782 69.142261z m-208.183652 118.583652q0-9.527652-6.745044-16.272695t-16.294956-6.745044q-44.076522 0-84.279653 17.007304-38.867478 16.428522-68.852869 46.413913-29.96313 29.985391-46.413913 68.830609-17.007304 40.225391-17.007305 84.279652 0 44.076522 17.007305 84.279653 16.450783 38.867478 46.413913 68.852869 29.985391 29.96313 68.852869 46.391652 40.225391 17.029565 84.279653 17.029565 44.076522 0 84.301913-17.029565 38.867478-16.428522 68.830608-46.391652 29.985391-29.985391 46.413913-68.852869 17.007304-40.20313 17.007305-84.279653 0-9.527652-6.722783-16.250434-6.745043-6.767304-16.294956-6.767305-9.527652 0-16.272696 6.745044t-6.745044 16.272695q0 70.633739-49.93113 120.56487-49.953391 49.953391-120.58713 49.953391-70.611478 0-120.56487-49.953391-49.93113-49.93113-49.93113-120.56487 0-70.611478 49.93113-120.542608 49.953391-49.953391 120.56487-49.953392 9.549913 0 16.294956-6.745043t6.745044-16.272696z m22.260869 0q0 18.765913-13.267478 32.011131-13.267478 13.267478-32.033391 13.267478-61.395478 0-104.826435 43.408696-43.408696 43.408696-43.408696 104.848695 0 61.395478 43.408696 104.804174 43.408696 43.408696 104.848695 43.408696 61.395478 0 104.804174-43.408696 43.408696-43.408696 43.408696-104.826435 0-18.743652 13.289739-32.01113 13.267478-13.267478 32.011131-13.267478 18.765913 0 32.033391 13.267478 13.267478 13.267478 13.267478 32.01113 0 48.573217-18.788174 92.961392-18.120348 42.852174-51.177739 75.909565-33.03513 33.03513-75.909565 51.155478-44.365913 18.788174-92.961391 18.788174-48.573217 0-92.961392-18.788174-42.852174-18.120348-75.909565-51.155478-33.03513-33.057391-51.177739-75.909565-18.765913-44.388174-18.765913-92.961392 0-48.573217 18.765913-92.93913 18.142609-42.874435 51.2-75.909565 33.03513-33.057391 75.909565-51.177739 44.365913-18.765913 92.939131-18.765913 18.765913 0 32.033391 13.267478 13.267478 13.245217 13.267478 32.01113z" fill="#86BC9F" p-id="1122"></path></svg>